<svg width="64" height="64" viewBox="0 0 64 64" fill="none" xmlns="http://www.w3.org/2000/svg">
<path d="M0 32C0 14.3269 14.3269 0 32 0C49.6731 0 64 14.3269 64 32C64 49.6731 49.6731 64 32 64C14.3269 64 0 49.6731 0 32Z" fill="#F2F4F7" style="fill:#F2F4F7;fill:color(display-p3 0.9490 0.9569 0.9686);fill-opacity:1;"/>
<path d="M0.375 32C0.375 14.534 14.534 0.375 32 0.375C49.466 0.375 63.625 14.534 63.625 32C63.625 49.466 49.466 63.625 32 63.625C14.534 63.625 0.375 49.466 0.375 32Z" stroke="black" stroke-opacity="0.08" style="stroke:black;stroke-opacity:0.08;" stroke-width="0.75"/>
<path d="M37.3333 22.668L41.3333 18.668M41.3333 18.668L45.3333 22.668M41.3333 18.668V26.668M32.6667 20.0013H26.4C24.1598 20.0013 23.0397 20.0013 22.184 20.4373C21.4314 20.8208 20.8195 21.4327 20.436 22.1853C20 23.041 20 24.1611 20 26.4013V37.6013C20 39.8415 20 40.9616 20.436 41.8173C20.8195 42.5699 21.4314 43.1818 22.184 43.5653C23.0397 44.0013 24.1598 44.0013 26.4 44.0013H38.6667C39.9066 44.0013 40.5266 44.0013 41.0353 43.865C42.4156 43.4951 43.4938 42.4169 43.8637 41.0366C44 40.5279 44 39.9079 44 38.668M30 27.3346C30 28.8074 28.8061 30.0013 27.3333 30.0013C25.8606 30.0013 24.6667 28.8074 24.6667 27.3346C24.6667 25.8619 25.8606 24.668 27.3333 24.668C28.8061 24.668 30 25.8619 30 27.3346ZM35.9867 31.8922L24.7082 42.1454C24.0738 42.7221 23.7566 43.0104 23.7286 43.2602C23.7043 43.4767 23.7873 43.6915 23.9509 43.8353C24.1397 44.0013 24.5684 44.0013 25.4257 44.0013H37.9413C39.8602 44.0013 40.8196 44.0013 41.5732 43.6789C42.5193 43.2742 43.2729 42.5206 43.6776 41.5745C44 40.8209 44 39.8615 44 37.9426C44 37.297 44 36.9742 43.9294 36.6735C43.8407 36.2957 43.6706 35.9418 43.431 35.6365C43.2403 35.3936 42.9883 35.1919 42.4841 34.7886L38.7544 31.8049C38.2499 31.4012 37.9976 31.1993 37.7197 31.1281C37.4748 31.0653 37.2172 31.0735 36.9767 31.1516C36.7039 31.2402 36.4648 31.4575 35.9867 31.8922Z" stroke="#667085" style="stroke:#667085;stroke:color(display-p3 0.4000 0.4392 0.5216);stroke-opacity:1;" stroke-width="2" stroke-linecap="round" stroke-linejoin="round"/>
</svg>
