<svg width="20" height="20" viewBox="0 0 20 20" fill="none" xmlns="http://www.w3.org/2000/svg">
<path d="M10.0001 1.66797C5.40008 1.66797 1.66675 5.4013 1.66675 10.0013C1.66675 14.6013 5.40008 18.3346 10.0001 18.3346C14.6001 18.3346 18.3334 14.6013 18.3334 10.0013C18.3334 5.4013 14.6001 1.66797 10.0001 1.66797ZM5.89175 15.2346C6.25008 14.4846 8.43341 13.7513 10.0001 13.7513C11.5667 13.7513 13.7584 14.4846 14.1084 15.2346C12.9751 16.1346 11.5501 16.668 10.0001 16.668C8.45008 16.668 7.02508 16.1346 5.89175 15.2346ZM15.3001 14.0263C14.1084 12.5763 11.2167 12.0846 10.0001 12.0846C8.78341 12.0846 5.89175 12.5763 4.70008 14.0263C3.85008 12.9096 3.33341 11.518 3.33341 10.0013C3.33341 6.3263 6.32508 3.33464 10.0001 3.33464C13.6751 3.33464 16.6667 6.3263 16.6667 10.0013C16.6667 11.518 16.1501 12.9096 15.3001 14.0263Z" fill="#5F6368" style="fill:#5F6368;fill:color(display-p3 0.3725 0.3882 0.4078);fill-opacity:1;"/>
<path d="M9.99992 5C8.38325 5 7.08325 6.3 7.08325 7.91667C7.08325 9.53333 8.38325 10.8333 9.99992 10.8333C11.6166 10.8333 12.9166 9.53333 12.9166 7.91667C12.9166 6.3 11.6166 5 9.99992 5ZM9.99992 9.16667C9.30825 9.16667 8.74992 8.60833 8.74992 7.91667C8.74992 7.225 9.30825 6.66667 9.99992 6.66667C10.6916 6.66667 11.2499 7.225 11.2499 7.91667C11.2499 8.60833 10.6916 9.16667 9.99992 9.16667Z" fill="#5F6368" style="fill:#5F6368;fill:color(display-p3 0.3725 0.3882 0.4078);fill-opacity:1;"/>
</svg>
