<svg width="24" height="24" viewBox="0 0 24 24" fill="none" xmlns="http://www.w3.org/2000/svg">
<g clip-path="url(#clip0_18849_14614)">
<path d="M23.7663 12.2782C23.7663 11.4625 23.7001 10.6423 23.559 9.83984H12.2402V14.4608H18.722C18.453 15.9512 17.5888 17.2696 16.3233 18.1073V21.1057H20.1903C22.4611 19.0157 23.7663 15.9291 23.7663 12.2782Z" fill="#4285F4" style="fill:#4285F4;fill:color(display-p3 0.2588 0.5216 0.9569);fill-opacity:1;"/>
<path d="M12.24 24.0013C15.4764 24.0013 18.2058 22.9387 20.1944 21.1044L16.3274 18.106C15.2516 18.838 13.8626 19.2525 12.2444 19.2525C9.11376 19.2525 6.45934 17.1404 5.50693 14.3008H1.51648V17.3917C3.55359 21.4439 7.70278 24.0013 12.24 24.0013Z" fill="#34A853" style="fill:#34A853;fill:color(display-p3 0.2039 0.6588 0.3255);fill-opacity:1;"/>
<path d="M5.50277 14.2987C5.00011 12.8084 5.00011 11.1946 5.50277 9.70422V6.61328H1.51674C-0.185266 10.0041 -0.185266 13.9989 1.51674 17.3897L5.50277 14.2987Z" fill="#FBBC04" style="fill:#FBBC04;fill:color(display-p3 0.9843 0.7373 0.0157);fill-opacity:1;"/>
<path d="M12.24 4.74966C13.9508 4.7232 15.6043 5.36697 16.8433 6.54867L20.2694 3.12262C18.1 1.0855 15.2207 -0.034466 12.24 0.000808666C7.70277 0.000808666 3.55359 2.55822 1.51648 6.61481L5.50252 9.70575C6.45052 6.86173 9.10935 4.74966 12.24 4.74966Z" fill="#EA4335" style="fill:#EA4335;fill:color(display-p3 0.9176 0.2627 0.2078);fill-opacity:1;"/>
</g>
<defs>
<clipPath id="clip0_18849_14614">
<rect width="24" height="24" fill="white" style="fill:white;fill-opacity:1;"/>
</clipPath>
</defs>
</svg>
